<svg width="16" height="21" viewBox="0 0 16 21" fill="none" xmlns="http://www.w3.org/2000/svg">
    <path d="M7.7475 20.1869C6.38662 19.0261 5.12521 17.7535 3.97646 16.3824C2.25255 14.3234 0.205415 11.257 0.205415 8.33503C0.203887 5.28323 2.04164 2.53127 4.86111 1.36333C7.68058 0.195396 10.926 0.841684 13.083 3.00062C14.5014 4.41272 15.296 6.33356 15.2896 8.33503C15.2896 11.257 13.2425 14.3234 11.5185 16.3824C10.3698 17.7535 9.10838 19.0261 7.7475 20.1869ZM7.7475 5.1027C6.59271 5.1027 5.52563 5.71878 4.94823 6.71887C4.37083 7.71895 4.37083 8.95111 4.94823 9.95119C5.52563 10.9513 6.59271 11.5674 7.7475 11.5674C9.53267 11.5674 10.9798 10.1202 10.9798 8.33503C10.9798 6.54986 9.53267 5.1027 7.7475 5.1027Z" fill="#79819A" />
</svg>
    