<svg width="10" height="13" viewBox="0 0 10 13" fill="none" xmlns="http://www.w3.org/2000/svg">
    <path d="M4.87877 12.197C4.06224 11.5005 3.30539 10.7369 2.61614 9.91431C1.5818 8.67891 0.353516 6.83908 0.353516 5.08586C0.352599 3.25478 1.45525 1.60361 3.14693 0.902849C4.83862 0.202086 6.78588 0.589859 8.08006 1.88522C8.93111 2.73248 9.40785 3.88498 9.40405 5.08586C9.40405 6.83908 8.17574 8.67891 7.1414 9.91431C6.45215 10.7369 5.6953 11.5005 4.87877 12.197ZM4.87877 3.14647C4.18589 3.14647 3.54564 3.51612 3.19921 4.11617C2.85277 4.71622 2.85277 5.45551 3.19921 6.05556C3.54564 6.65561 4.18589 7.02526 4.87877 7.02526C5.94987 7.02526 6.81816 6.15696 6.81816 5.08586C6.81816 4.01477 5.94987 3.14647 4.87877 3.14647Z" fill="#79819A" />
</svg>