<svg width="15" height="14" viewBox="0 0 15 14" fill="none" xmlns="http://www.w3.org/2000/svg">
    <path d="M4.44647 13.9374C2.8124 13.9374 1.33922 12.9531 0.713788 11.4435C0.0883523 9.93383 0.433812 8.19609 1.5891 7.04046L3.30385 5.32571L4.44647 6.46833L2.73253 8.18227C2.12006 8.79475 1.88086 9.68745 2.10504 10.5241C2.32922 11.3608 2.98273 12.0143 3.81938 12.2385C4.65604 12.4626 5.54875 12.2234 6.16122 11.611L7.87516 9.89702L9.01779 11.0405L7.30385 12.7544C6.54754 13.5144 5.51868 13.9404 4.44647 13.9374ZM5.01779 10.4683L3.87516 9.32571L9.5891 3.61177L10.7317 4.7544L5.01859 10.4675L5.01779 10.4683ZM11.3038 8.7544L10.1604 7.61177L11.8744 5.89783C12.4952 5.28719 12.7408 4.39049 12.5178 3.54872C12.2948 2.70696 11.6374 2.04946 10.7957 1.82627C9.95402 1.60307 9.05726 1.84847 8.44647 2.46914L6.73173 4.18308L5.5891 3.04046L7.30385 1.32571C8.88371 -0.240381 11.4323 -0.2348 13.0053 1.33819C14.5783 2.91118 14.5839 5.45978 13.0178 7.03965L11.3038 8.75359V8.7544Z" fill="#516CF7" />
</svg>
    