<svg width="16" height="12" viewBox="0 0 16 12" fill="none" xmlns="http://www.w3.org/2000/svg">
    <path d="M12.7011 6.10718C14.3912 6.10718 15.532 7.28365 15.532 9.02657C15.532 10.5952 14.2222 11.9024 12.4476 11.9024C10.504 11.9024 9.06737 10.3338 9.06737 7.93725C9.06737 2.49062 13.0391 0.311974 15.532 0.050534L15.532 2.44705C13.8419 2.75206 11.9405 4.45141 11.856 6.32505C11.9405 6.28147 12.2786 6.10718 12.7011 6.10718Z" fill="#79819A" />
    <path d="M4.08157 6.10718C5.77167 6.10718 6.91249 7.28365 6.91249 9.02657C6.91249 10.5952 5.60266 11.9024 3.82805 11.9024C1.88443 11.9024 0.447845 10.3338 0.447845 7.93725C0.447845 2.49062 4.41959 0.311973 6.91249 0.0505333V2.44705C5.22239 2.75206 3.32102 4.45141 3.23652 6.32505C3.32102 6.28147 3.65904 6.10718 4.08157 6.10718Z" fill="#79819A" />
</svg>
    