<svg width="12" height="18" viewBox="0 0 12 18" fill="none" xmlns="http://www.w3.org/2000/svg">
    <path d="M3.30907 17.1213C1.96369 17.1317 0.758528 16.291 0.303824 15.0248C-0.15088 13.7585 0.244141 12.3432 1.28887 11.4954C0.547861 10.8956 0.117336 9.99333 0.117336 9.04003C0.117336 8.08673 0.547861 7.18441 1.28887 6.58468C0.243806 5.73719 -0.151452 4.32175 0.303338 3.05543C0.758128 1.78912 1.96361 0.948569 3.30907 0.959517H8.24645C9.59191 0.948569 10.7974 1.78912 11.2522 3.05543C11.707 4.32175 11.3117 5.73719 10.2666 6.58468C11.3114 7.43244 11.7064 8.84779 11.2517 10.114C10.797 11.3803 9.59183 12.221 8.24645 12.2105C7.62502 12.2113 7.01693 12.0304 6.49695 11.6901V13.9528C6.48938 15.7071 5.06342 17.1244 3.30907 17.1213ZM3.29129 12.2113C2.33415 12.2265 1.56903 13.012 1.57907 13.9692C1.5891 14.9264 2.37053 15.6957 3.32778 15.6907C4.28503 15.6857 5.05845 14.9084 5.05857 13.9511V12.2113H3.29049H3.29129ZM8.24725 7.30063C7.28756 7.30554 6.51309 8.08663 6.51634 9.04633C6.51962 10.006 7.29939 10.7818 8.25909 10.7802C9.21879 10.7786 9.99594 10.0001 9.99594 9.04043C9.99238 8.07726 9.20962 7.29885 8.24645 7.30063H8.24725ZM3.30988 7.30061C2.68831 7.29731 2.11218 7.62585 1.79852 8.16249C1.48486 8.69912 1.48132 9.36233 1.78923 9.90228C2.09714 10.4422 2.66972 10.7769 3.29129 10.7802H5.05857V7.30061H3.30988ZM6.49695 2.38993V5.87035H8.24564C9.181 5.87469 9.95273 5.13935 9.99352 4.20488V4.55639V4.12973C9.98951 3.16769 9.20849 2.38993 8.24645 2.38993H6.49695ZM3.30826 2.38993C2.68669 2.38993 2.11234 2.72153 1.80155 3.25983C1.49077 3.79812 1.49077 4.46133 1.80155 4.99962C2.11234 5.53792 2.68669 5.86952 3.30826 5.86952H5.05857V2.38993H3.30826Z" fill="#516CF7" />
</svg>