<svg width="19" height="20" viewBox="0 0 19 20" fill="none" xmlns="http://www.w3.org/2000/svg">
    <path d="M5.93874 19.2818C3.75998 19.2818 1.79574 17.9694 0.961828 15.9565C0.127914 13.9437 0.588528 11.6267 2.12891 10.0858L4.41524 7.7995L5.93874 9.323L3.65349 11.6083C2.83686 12.4249 2.51792 13.6152 2.81683 14.7307C3.11574 15.8462 3.98708 16.7176 5.10262 17.0165C6.21817 17.3154 7.40844 16.9965 8.22507 16.1798L10.5103 13.8946L12.0338 15.4192L9.74858 17.7044C8.74017 18.7178 7.36835 19.2858 5.93874 19.2818ZM6.70049 14.6563L5.17699 13.1328L12.7956 5.51425L14.3191 7.03775L6.70157 14.6553L6.70049 14.6563ZM15.0819 12.3711L13.5573 10.8476L15.8426 8.56233C16.6703 7.74814 16.9978 6.55254 16.7005 5.43019C16.4032 4.30783 15.5267 3.43118 14.4044 3.13358C13.2821 2.83599 12.0865 3.16318 11.2721 3.99075L8.98575 6.276L7.46225 4.7525L9.74858 2.46617C11.8551 0.37805 15.2532 0.385491 17.3505 2.48281C19.4478 4.58014 19.4553 7.97827 17.3672 10.0848L15.0819 12.37V12.3711Z" fill="#79819A" />
</svg>
    