<svg width="18" height="18" viewBox="0 0 18 18" fill="none" xmlns="http://www.w3.org/2000/svg">
    <path d="M16.2868 17.9074C7.09451 17.9204 0.118091 10.8604 0.127925 1.74851C0.127925 1.15346 0.610312 0.668365 1.20537 0.668365H4.04912C4.58307 0.668365 5.03666 1.06069 5.11507 1.58885C5.30298 2.85471 5.67153 4.08705 6.20951 5.24825L6.32023 5.48723C6.47418 5.81951 6.36983 6.21432 6.07181 6.42715C5.19113 7.05607 4.85456 8.32203 5.54065 9.30982C6.40161 10.5494 7.48689 11.6345 8.72619 12.495C9.71393 13.1809 10.9797 12.8444 11.6086 11.9639C11.8216 11.6657 12.2166 11.5613 12.5491 11.7153L12.787 11.8255C13.9482 12.3634 15.1807 12.732 16.4467 12.9199C16.9748 12.9983 17.367 13.4519 17.367 13.9858V16.83C17.367 17.425 16.8834 17.9074 16.2884 17.9074L16.2868 17.9074Z" fill="#79819A" />
</svg>
    